<svg xmlns="http://www.w3.org/2000/svg"
     xmlns:xlink="http://www.w3.org/1999/xlink"
		     width="5.65278in" height="5.65278in"
		     viewBox="0 0 407 407">
		  <defs>
		  <path id="path1"
		        fill="none" stroke="black" stroke-width="1"
		        d="M 212.00,65.21
		           C 
		             276.82,81.47 292.56,91.50 305.00,103.09
		             361.61,155.83 363.06,245.29 311.83,302.00
		             300.43,314.62 286.16,324.69 271.00,332.25
		             248.41,343.51 227.02,347.29 202.00,347.00
		             190.23,346.86 174.20,343.40 163.00,339.67
		             143.76,333.25 125.86,322.75 111.00,308.91
		             67.85,268.71 55.41,203.83 78.43,150.00
		             92.73,116.54 119.35,89.97 153.00,76.01
		             168.50,69.58 179.70,67.75 196.00,65.21
		             196.00,65.21 212.00,65.21 212.00,65.21 
		             227.60,65.02 246.51,69.46 261.00,75.20 Z" />
		  </defs>
		  <text id="myText" style="font-size: 50px;">
    		<textPath xlink:href="#path1" startOffset="0%">Creators of Moments</textPath>
          </text>
		</svg>