<?xml version="1.0" encoding="UTF-8" standalone="no"?>
<!DOCTYPE svg PUBLIC "-//W3C//DTD SVG 20010904//EN"
              "http://www.w3.org/TR/2001/REC-SVG-20010904/DTD/svg10.dtd">

<svg xmlns="http://www.w3.org/2000/svg"
     width="7.44444in" height="13.3333in"
     viewBox="0 0 536 960">
  <path id="Selection"
        fill="none" stroke="black" stroke-width="1"
        d="M 61.00,134.10
           C 61.00,134.10 71.00,134.10 71.00,134.10
             71.00,134.10 92.00,133.00 92.00,133.00
             92.00,133.00 107.00,132.00 107.00,132.00
             107.00,132.00 121.00,132.00 121.00,132.00
             121.00,132.00 137.00,131.00 137.00,131.00
             137.00,131.00 231.00,131.00 231.00,131.00
             231.00,131.00 246.00,132.00 246.00,132.00
             246.00,132.00 285.00,133.00 285.00,133.00
             285.00,133.00 304.00,134.00 304.00,134.00
             304.00,134.00 322.00,135.83 322.00,135.83
             322.00,135.83 356.00,139.08 356.00,139.08
             356.00,139.08 400.00,145.58 400.00,145.58
             417.90,148.80 422.59,148.10 440.00,155.86
             452.43,161.40 464.89,167.09 463.91,183.00
             463.38,191.61 454.84,204.29 450.42,212.00
             450.42,212.00 438.31,233.00 438.31,233.00
             438.31,233.00 409.34,275.00 409.34,275.00
             409.34,275.00 312.33,416.00 312.33,416.00
             312.33,416.00 279.98,463.00 279.98,463.00
             276.45,468.11 266.78,481.18 264.76,486.00
             259.90,497.62 255.02,517.47 255.00,530.00
             255.00,530.00 256.00,550.00 256.00,550.00
             256.00,550.00 256.00,612.00 256.00,612.00
             256.00,612.00 257.00,629.00 257.00,629.00
             257.00,629.00 257.00,692.00 257.00,692.00
             257.01,694.57 256.67,698.44 258.60,700.41
             260.54,702.39 269.92,703.54 273.00,704.08
             273.00,704.08 300.00,711.89 300.00,711.89
             306.07,713.82 311.50,717.42 317.00,720.58
             327.99,726.88 341.97,736.18 348.87,747.00
             350.67,749.81 353.02,755.71 354.42,759.00
             357.89,767.15 359.70,771.91 358.83,781.00
             357.31,796.91 352.37,816.16 342.47,829.00
             339.93,832.30 335.08,836.92 332.00,840.00
             328.60,843.40 325.02,847.25 321.00,849.89
             321.00,849.89 290.00,863.00 290.00,863.00
             290.00,863.00 255.00,875.55 255.00,875.55
             246.90,877.21 224.53,879.01 216.00,879.00
             216.00,879.00 195.00,877.17 195.00,877.17
             195.00,877.17 169.00,874.54 169.00,874.54
             169.00,874.54 152.00,870.13 152.00,870.13
             152.00,870.13 124.00,862.53 124.00,862.53
             124.00,862.53 106.00,852.28 106.00,852.28
             101.13,849.50 94.07,845.53 90.04,841.82
             85.65,837.77 82.02,831.94 78.66,827.00
             71.60,816.63 67.71,814.27 68.01,801.00
             68.01,801.00 70.72,778.00 70.72,778.00
             71.38,772.96 71.86,766.62 74.05,762.00
             75.59,758.74 78.86,754.94 81.12,752.00
             94.49,734.62 100.31,732.13 119.00,721.86
             126.02,718.01 147.32,711.68 156.00,709.02
             165.80,706.02 169.82,707.33 170.00,698.00
             170.00,698.00 170.00,642.00 170.00,642.00
             170.00,642.00 170.00,537.00 170.00,537.00
             170.00,537.00 168.68,515.00 168.68,515.00
             168.68,515.00 161.01,491.00 161.01,491.00
             161.01,491.00 149.71,475.00 149.71,475.00
             149.71,475.00 124.88,441.00 124.88,441.00
             124.88,441.00 43.00,329.00 43.00,329.00
             43.00,329.00 13.12,288.00 13.12,288.00
             10.00,283.78 1.60,273.50 0.14,269.00
             -0.08,267.06 0.00,264.05 0.14,262.00
             0.14,262.00 0.14,142.00 0.14,142.00
             0.14,142.00 61.00,134.10 61.00,134.10 Z" />
</svg>
