<?xml version="1.0" encoding="UTF-8" standalone="no"?>
<!DOCTYPE svg PUBLIC "-//W3C//DTD SVG 20010904//EN"
              "http://www.w3.org/TR/2001/REC-SVG-20010904/DTD/svg10.dtd">

<svg xmlns="http://www.w3.org/2000/svg"
     width="14.2222in" height="6.68056in"
     viewBox="0 0 1024 481">
  <path id="Selection"
        fill="none" stroke="black" stroke-width="1"
        d="M 1.00,396.00
           C 1.00,396.00 0.00,382.00 0.00,382.00
             0.00,382.00 0.00,305.00 0.00,305.00
             0.00,302.83 -0.23,299.32 1.02,297.50
             2.57,295.25 10.22,292.71 13.00,291.60
             13.00,291.60 42.00,280.20 42.00,280.20
             42.00,280.20 180.00,225.80 180.00,225.80
             180.00,225.80 320.00,170.55 320.00,170.55
             320.00,170.55 375.00,149.00 375.00,149.00
             375.00,149.00 404.00,140.85 404.00,140.85
             404.00,140.85 420.00,136.45 420.00,136.45
             420.00,136.45 481.00,128.00 481.00,128.00
             481.00,128.00 501.00,129.00 501.00,129.00
             501.00,129.00 513.00,129.00 513.00,129.00
             513.00,129.00 549.00,132.85 549.00,132.85
             567.91,135.11 584.52,138.73 603.00,143.12
             603.00,143.12 622.00,147.43 622.00,147.43
             622.00,147.43 652.00,157.33 652.00,157.33
             652.00,157.33 675.00,165.06 675.00,165.06
             675.00,165.06 704.00,178.69 704.00,178.69
             704.00,178.69 739.00,195.31 739.00,195.31
             739.00,195.31 773.00,217.90 773.00,217.90
             773.00,217.90 810.83,253.68 810.83,253.68
             810.83,253.68 853.00,295.00 853.00,295.00
             853.00,295.00 878.25,320.17 878.25,320.17
             878.25,320.17 894.27,339.00 894.27,339.00
             894.27,339.00 932.25,384.00 932.25,384.00
             932.25,384.00 990.43,454.00 990.43,454.00
             990.43,454.00 1014.00,480.00 1014.00,480.00
             1014.00,480.00 683.00,480.00 683.00,480.00
             683.00,480.00 518.00,480.00 518.00,480.00
             518.00,480.00 503.00,479.00 503.00,479.00
             503.00,479.00 1.00,479.00 1.00,479.00
             1.00,479.00 1.00,396.00 1.00,396.00 Z" />
</svg>
