<?xml version="1.0" encoding="UTF-8" standalone="no"?>
<!DOCTYPE svg PUBLIC "-//W3C//DTD SVG 20010904//EN"
              "http://www.w3.org/TR/2001/REC-SVG-20010904/DTD/svg10.dtd">

<svg xmlns="http://www.w3.org/2000/svg"
     width="14.2222in" height="6.68056in"
     viewBox="0 0 1024 481">
  <path id="Selection#2"
        fill="none" stroke="black" stroke-width="1"
        d="M 1.00,305.00
           C 1.01,302.28 0.66,298.80 2.60,296.65
             4.35,294.71 13.14,291.38 16.00,290.15
             16.00,290.15 48.00,276.42 48.00,276.42
             48.00,276.42 126.00,243.01 126.00,243.01
             126.00,243.01 202.00,213.95 202.00,213.95
             202.00,213.95 314.00,170.42 314.00,170.42
             314.00,170.42 355.00,155.95 355.00,155.95
             355.00,155.95 412.00,136.89 412.00,136.89
             412.00,136.89 434.00,132.60 434.00,132.60
             445.81,130.24 457.93,128.02 470.00,128.00
             470.00,128.00 519.00,128.00 519.00,128.00
             519.00,128.00 556.00,131.87 556.00,131.87
             581.08,135.35 598.76,139.67 623.00,146.58
             623.00,146.58 646.00,153.34 646.00,153.34
             646.00,153.34 681.00,166.80 681.00,166.80
             681.00,166.80 737.00,191.32 737.00,191.32
             737.00,191.32 762.00,207.35 762.00,207.35
             776.12,217.13 800.88,245.06 815.00,257.83
             846.94,286.73 875.32,319.11 904.17,351.00
             904.17,351.00 945.07,395.00 945.07,395.00
             945.07,395.00 972.42,426.00 972.42,426.00
             975.27,429.30 984.17,438.63 985.40,442.00
             986.21,444.19 986.03,449.48 986.00,452.00
             986.00,452.00 984.00,480.00 984.00,480.00
             984.00,480.00 1.00,480.00 1.00,480.00
             1.00,480.00 1.00,305.00 1.00,305.00 Z" />
</svg>
