<?xml version="1.0" encoding="UTF-8" standalone="no"?>
<!DOCTYPE svg PUBLIC "-//W3C//DTD SVG 20010904//EN"
              "http://www.w3.org/TR/2001/REC-SVG-20010904/DTD/svg10.dtd">

<svg xmlns="http://www.w3.org/2000/svg"
     width="14.2222in" height="6.68056in"
     viewBox="0 0 1024 481">
  <path id="Selection#3"
        fill="none" stroke="black" stroke-width="1"
        d="M 0.00,462.00
           C 0.00,462.00 0.00,310.00 0.00,310.00
             0.00,307.79 -0.22,304.29 1.02,302.42
             2.40,300.33 5.75,299.43 8.00,298.58
             8.00,298.58 27.00,291.66 27.00,291.66
             27.00,291.66 113.00,260.05 113.00,260.05
             113.00,260.05 320.00,184.31 320.00,184.31
             320.00,184.31 362.00,168.95 362.00,168.95
             362.00,168.95 382.00,161.57 382.00,161.57
             413.67,152.03 434.99,147.13 468.00,143.83
             468.00,143.83 491.00,142.00 491.00,142.00
             531.81,141.53 567.38,144.44 607.00,155.15
             607.00,155.15 636.00,164.42 636.00,164.42
             636.00,164.42 659.00,173.33 659.00,173.33
             659.00,173.33 710.00,190.87 710.00,190.87
             710.00,190.87 725.00,198.75 725.00,198.75
             725.00,198.75 744.00,209.22 744.00,209.22
             744.00,209.22 762.00,223.00 762.00,223.00
             762.00,223.00 780.00,237.17 780.00,237.17
             780.00,237.17 820.04,279.00 820.04,279.00
             820.04,279.00 854.09,315.00 854.09,315.00
             854.09,315.00 865.83,327.00 865.83,327.00
             865.83,327.00 909.16,376.00 909.16,376.00
             909.16,376.00 965.00,437.00 965.00,437.00
             965.00,437.00 1008.00,481.00 1008.00,481.00
             1008.00,481.00 844.00,481.00 844.00,481.00
             844.00,481.00 762.00,481.00 762.00,481.00
             762.00,481.00 747.00,480.00 747.00,480.00
             747.00,480.00 583.00,480.00 583.00,480.00
             583.00,480.00 367.00,480.00 367.00,480.00
             367.00,480.00 259.00,480.00 259.00,480.00
             259.00,480.00 244.00,479.00 244.00,479.00
             244.00,479.00 1.00,479.00 1.00,479.00
             1.00,479.00 0.00,462.00 0.00,462.00 Z" />
</svg>
