<?xml version="1.0" encoding="UTF-8" standalone="no"?>
<!DOCTYPE svg PUBLIC "-//W3C//DTD SVG 20010904//EN"
              "http://www.w3.org/TR/2001/REC-SVG-20010904/DTD/svg10.dtd">

<svg xmlns="http://www.w3.org/2000/svg"
     width="14.2222in" height="6.68056in"
     viewBox="0 0 1024 481">
  <path id="Selection#4"
        fill="none" stroke="black" stroke-width="1"
        d="M 0.00,395.00
           C 0.00,395.00 1.00,380.00 1.00,380.00
             1.00,380.00 1.00,304.00 1.00,304.00
             1.00,301.83 0.77,298.32 2.02,296.50
             3.54,294.29 10.33,292.07 13.00,291.00
             13.00,291.00 41.00,279.58 41.00,279.58
             41.00,279.58 59.00,272.05 59.00,272.05
             59.00,272.05 78.00,265.55 78.00,265.55
             78.00,265.55 94.00,258.42 94.00,258.42
             94.00,258.42 133.00,242.20 133.00,242.20
             133.00,242.20 172.00,226.69 172.00,226.69
             172.00,226.69 224.00,206.19 224.00,206.19
             224.00,206.19 264.00,190.55 264.00,190.55
             264.00,190.55 284.00,182.06 284.00,182.06
             284.00,182.06 307.00,174.31 307.00,174.31
             307.00,174.31 346.00,158.42 346.00,158.42
             346.00,158.42 386.00,145.66 386.00,145.66
             386.00,145.66 412.00,137.24 412.00,137.24
             427.10,133.68 463.89,128.02 479.00,128.00
             479.00,128.00 508.00,129.00 508.00,129.00
             508.00,129.00 526.00,130.00 526.00,130.00
             526.00,130.00 536.00,130.91 536.00,130.91
             536.00,130.91 568.00,134.92 568.00,134.92
             593.35,139.20 628.95,147.96 653.00,156.69
             653.00,156.69 686.00,170.40 686.00,170.40
             686.00,170.40 721.00,184.31 721.00,184.31
             748.78,197.13 775.30,218.74 797.00,240.01
             797.00,240.01 814.00,258.00 814.00,258.00
             814.00,258.00 838.00,280.04 838.00,280.04
             838.00,280.04 851.04,294.00 851.04,294.00
             851.04,294.00 867.91,311.00 867.91,311.00
             867.91,311.00 881.30,328.00 881.30,328.00
             881.30,328.00 904.71,353.00 904.71,353.00
             904.71,353.00 928.29,382.00 928.29,382.00
             928.29,382.00 945.71,401.00 945.71,401.00
             945.71,401.00 957.17,415.00 957.17,415.00
             957.17,415.00 968.83,427.00 968.83,427.00
             968.83,427.00 989.00,451.00 989.00,451.00
             995.03,457.04 1001.29,463.05 1008.00,468.33
             1013.33,472.52 1019.59,475.79 1024.00,481.00
             1024.00,481.00 858.00,481.00 858.00,481.00
             858.00,481.00 775.00,481.00 775.00,481.00
             775.00,481.00 760.00,480.00 760.00,480.00
             760.00,480.00 590.00,480.00 590.00,480.00
             590.00,480.00 372.00,480.00 372.00,480.00
             372.00,480.00 262.00,480.00 262.00,480.00
             262.00,480.00 247.00,479.00 247.00,479.00
             247.00,479.00 0.00,479.00 0.00,479.00
             0.00,479.00 0.00,395.00 0.00,395.00 Z" />
</svg>
